<svg xmlns="http://www.w3.org/2000/svg" width="19.989" height="17.856" viewBox="0 0 19.989 17.856">
  <g id="noun_Map_3776797" transform="translate(-3 -2.006)">
    <path id="Path_67" data-name="Path 67" d="M21.621,5.917l-4.87-1.025a3.087,3.087,0,0,0-1.31.007l-1.261.281A4.478,4.478,0,0,0,5.6,5.228l-.517-.109A1.723,1.723,0,0,0,3,6.8V17.084A1.731,1.731,0,0,0,4.368,18.77L9.238,19.8a3.087,3.087,0,0,0,1.311-.007l5.039-1.12a2.39,2.39,0,0,1,1.02-.006l4.3.906a1.723,1.723,0,0,0,2.078-1.686V7.6a1.731,1.731,0,0,0-1.368-1.686ZM9.893,2.693a3.8,3.8,0,0,1,3.791,3.791c0,1.3-1.047,3.5-2.948,6.211a1.031,1.031,0,0,1-1.686,0C7.149,9.989,6.1,7.783,6.1,6.484A3.8,3.8,0,0,1,9.893,2.693ZM22.3,17.882a1.034,1.034,0,0,1-1.247,1.012l-4.3-.906a3.087,3.087,0,0,0-1.31.007L10.4,19.115c-.054.012-.109.019-.163.027v-3.7a.345.345,0,0,0-.689,0v3.7c-.056-.008-.112-.014-.168-.026L4.51,18.1a1.039,1.039,0,0,1-.821-1.012V6.8A1.034,1.034,0,0,1,4.936,5.793l.517.109a4.441,4.441,0,0,0-.041.582c0,1.845,1.671,4.611,3.073,6.607a1.72,1.72,0,0,0,2.814,0c1.4-2,3.073-4.762,3.073-6.607a4.442,4.442,0,0,0-.05-.632l1.266-.281a2.39,2.39,0,0,1,1.02-.006l4.87,1.025A1.039,1.039,0,0,1,22.3,7.6ZM9.893,8.552A2.068,2.068,0,1,0,7.825,6.484,2.068,2.068,0,0,0,9.893,8.552Zm0-3.446A1.379,1.379,0,1,1,8.514,6.484,1.379,1.379,0,0,1,9.893,5.106Zm6.548,1.723v9.65a.345.345,0,0,1-.689,0V6.829a.345.345,0,1,1,.689,0Z" transform="translate(0)"/>
  </g>
</svg>
