<svg xmlns="http://www.w3.org/2000/svg" width="28.257" height="19.49" viewBox="0 0 28.257 19.49">
  <g id="noun_profile_37233" transform="translate(-6.764 -20.918)">
    <g id="Group_97" data-name="Group 97" transform="translate(6.764 20.918)">
      <path id="Path_76" data-name="Path 76" d="M34.594,20.943l-3.452-.02c-1.151-.01-2.3,0-3.452,0s-2.3,0-3.452.015l-3.452.025-3.452.024-3.452.042-1.726.022-1.726.032-3.452.062-.214,0,.015.207.169,2.337c.059.779.107,1.559.159,2.337l.143,2.338c.048.779.089,1.56.129,2.339s.081,1.56.113,2.34.067,1.56.093,2.341l.169,4.683.009.256.266,0c1.063.019,2.126.048,3.189.057l1.595.017,1.595,0c1.063.006,2.126-.005,3.189-.009l1.595-.008,1.595-.015c1.063-.013,2.126-.019,3.189-.039s2.126-.031,3.189-.057,2.126-.046,3.19-.081l1.595-.048c.531-.013,1.063-.039,1.595-.058h.037l0-.036c.147-1.556.268-3.113.4-4.67l.359-4.673c.122-1.557.226-3.115.338-4.673l.31-4.675.028-.419ZM33.98,26c-.063,1.561-.134,3.121-.189,4.683l-.166,4.683c-.04,1.549-.093,3.1-.121,4.647-.519-.02-1.037-.044-1.556-.057l-1.595-.047c-1.064-.035-2.126-.06-3.19-.081s-2.126-.038-3.189-.057-2.126-.025-3.189-.039l-1.595-.015L17.6,39.709c-1.063,0-2.126-.015-3.189-.009l-1.595,0-1.595.017c-.978.008-1.956.033-2.934.052l-.336-4.407q-.093-1.169-.17-2.337t-.15-2.338c-.048-.779-.095-1.559-.134-2.339l-.119-2.339c-.036-.78-.076-1.56-.1-2.341l-.085-2.127,3.245.058,1.726.033,1.726.021,3.452.041,3.452.025,3.452.024c1.151.009,2.3.017,3.452.015s2.3.007,3.452,0l3.034-.017Z" transform="translate(-6.764 -20.918)"/>
      <path id="Path_77" data-name="Path 77" d="M52.776,59.894c-.012-.045-.027-.094-.041-.145s-.041-.1-.064-.151c-.047-.1-.1-.216-.163-.333a2.67,2.67,0,0,0-.232-.344,2.219,2.219,0,0,0-.288-.337c-.108-.107-.221-.211-.337-.313s-.252-.177-.38-.258a2.37,2.37,0,0,0-.394-.2c-.066-.028-.13-.058-.195-.083a1.134,1.134,0,0,0-.194-.066c-.131-.036-.255-.064-.368-.087-.057-.009-.111-.024-.162-.027l-.145-.007c-.091,0-.173,0-.239,0-.133,0-.212.014-.212.014s.058.054.165.135c.053.04.118.089.194.139a2.4,2.4,0,0,1,.244.174c.084.064.174.129.269.194s.191.149.3.219.213.144.312.232.21.163.317.243.2.175.307.256.2.169.3.252.2.157.282.24.171.156.254.225l.119.1.1.1c.065.06.127.11.177.153.1.084.169.131.169.131a1.851,1.851,0,0,0-.033-.209C52.817,60.066,52.8,59.984,52.776,59.894Z" transform="translate(-33.889 -44.236)"/>
      <path id="Path_78" data-name="Path 78" d="M39.592,34.174a3.687,3.687,0,0,1,.364,1.267c.008.055.008.111.013.167,0,.025,0,.062,0,.078v.088c0,.058,0,.119,0,.175l-.01.163a3.569,3.569,0,0,1-.106.664,3.482,3.482,0,0,1-.226.643,3.882,3.882,0,0,1-.336.6,4.146,4.146,0,0,1-.973,1,3.888,3.888,0,0,0,1.848-2.144,3.933,3.933,0,0,0,.185-.718l.025-.189c.007-.062.009-.119.014-.178L40.4,35.7c0-.043,0-.065,0-.1,0-.062,0-.124,0-.187a4.075,4.075,0,0,0-.31-1.465,4.2,4.2,0,0,0-3.549-2.562,4.145,4.145,0,0,0-1.527.156,4.26,4.26,0,0,0-2.99,3.278c-.024.128-.044.256-.057.384s-.021.275-.022.384a3.635,3.635,0,0,0,.069.785A3.908,3.908,0,0,0,32.63,37.8a5.816,5.816,0,0,0,1.008,1.111c.188.161.38.308.58.453l.146.1.13.1a2.623,2.623,0,0,1,.242.209,1.791,1.791,0,0,1,.366.485,1.162,1.162,0,0,1,.1.269.853.853,0,0,1,.017.107l-.122.034-.319.109-.311.127-.3.144-.293.161-.281.181-.269.2-.257.211-.244.224-.229.238-.212.252-.2.263L32,43.042l-.162.284-.144.293-.126.3.165-.278.179-.266.194-.255.205-.244.218-.232.23-.217.24-.205.25-.191.26-.175.27-.159.277-.143.283-.129.289-.113.295-.1.3-.078.3-.06.161-.032.036-.157a.92.92,0,0,0,.021-.133.992.992,0,0,0,0-.113,1.329,1.329,0,0,0-.019-.216,1.634,1.634,0,0,0-.121-.4,2.361,2.361,0,0,0-.446-.664,3.19,3.19,0,0,0-.28-.268l-.148-.122-.137-.109c-.175-.142-.35-.291-.513-.446a5.157,5.157,0,0,1-.858-1.006,3.22,3.22,0,0,1-.465-1.174,2.891,2.891,0,0,1-.048-.623c0-.126.011-.219.021-.322s.029-.211.05-.315A3.539,3.539,0,0,1,33.26,33.8a3.638,3.638,0,0,1,.851-.94,3.55,3.55,0,0,1,1.75-.716c.106-.013.212-.023.319-.026l.071,0h.088c.059,0,.121,0,.168.005a3.509,3.509,0,0,1,1.24.291,3.821,3.821,0,0,1,1.077.712A3.645,3.645,0,0,1,39.592,34.174Z" transform="translate(-22.559 -27.575)"/>
    </g>
  </g>
</svg>
