<svg xmlns="http://www.w3.org/2000/svg" width="81.8" height="80.9" viewBox="0 0 81.8 80.9">
  <g id="diagram" transform="translate(-9.1 -9.6)">
    <g id="Group_113" data-name="Group 113">
      <path id="Path_85" data-name="Path 85" d="M45.6,82.5A1.538,1.538,0,0,0,47.1,81V46.7L71.4,22.4a1.45,1.45,0,0,0,0-2.1A36.147,36.147,0,0,0,45.6,9.6a36.45,36.45,0,1,0,0,72.9Zm0-69.9a33.236,33.236,0,0,1,22.6,8.8L44.6,45a1.5,1.5,0,0,0-.4,1.1V79.5a33.466,33.466,0,0,1,1.4-66.9Z"/>
      <path id="Path_86" data-name="Path 86" d="M53.1,52.9a1.383,1.383,0,0,0-1.6-.3,1.416,1.416,0,0,0-.9,1.4V89a1.538,1.538,0,0,0,1.5,1.5A36.319,36.319,0,0,0,77.9,79.8a1.5,1.5,0,0,0,.4-1.1,2.1,2.1,0,0,0-.4-1.1Zm.5,34.5V57.6L74.7,78.7A34.031,34.031,0,0,1,53.6,87.4Z"/>
      <path id="Path_87" data-name="Path 87" d="M78,21.7,53.3,46.4a1.5,1.5,0,0,0-.4,1.1h0a2.1,2.1,0,0,0,.4,1.1L78,73.3a1.712,1.712,0,0,0,2.2,0,36.455,36.455,0,0,0,0-51.6A1.569,1.569,0,0,0,78,21.7Zm1.1,48.4L56.5,47.5,79.1,24.9a33.053,33.053,0,0,1,8.8,22.6A33.716,33.716,0,0,1,79.1,70.1Z"/>
    </g>
  </g>
</svg>
