<svg xmlns="http://www.w3.org/2000/svg" width="20.42" height="20.419" viewBox="0 0 20.42 20.419">
  <g id="noun_sun_1217428" transform="translate(-4.867 -4.869)">
    <path id="Path_68" data-name="Path 68" d="M15.077,8.737a6.342,6.342,0,1,0,4.484,1.857,6.32,6.32,0,0,0-4.484-1.857ZM11.033,21.654a.214.214,0,0,1,.37.215l-1.139,1.974a.214.214,0,0,1-.37-.214l1.139-1.974Zm-2.746-2.9a.213.213,0,1,1,.212.37L6.525,20.262a.214.214,0,0,1-.213-.37l1.974-1.139ZM7.36,14.865a.214.214,0,1,1,0,.428H5.082a.214.214,0,1,1,0-.428ZM8.5,11.035a.213.213,0,1,1-.212.37L6.312,10.265a.213.213,0,0,1,.213-.37L8.5,11.035Zm2.9-2.746a.214.214,0,1,1-.37.213L9.893,6.527a.213.213,0,1,1,.37-.212L11.4,8.288ZM14.863,22.8a.214.214,0,1,1,.429,0v2.278a.214.214,0,0,1-.429,0V22.8Zm3.888-.927a.214.214,0,0,1,.371-.212L20.26,23.63a.213.213,0,1,1-.37.212l-1.14-1.974Zm2.9-2.746a.213.213,0,0,1,.212-.37l1.974,1.14a.213.213,0,1,1-.213.369l-1.974-1.139Zm1.14-3.83a.214.214,0,1,1,0-.428h2.278a.214.214,0,1,1,0,.428ZM21.868,11.4a.214.214,0,1,1-.215-.37L23.628,9.9a.214.214,0,1,1,.214.37L21.868,11.4ZM19.121,8.5a.214.214,0,1,1-.37-.214L19.89,6.314a.214.214,0,1,1,.37.214L19.121,8.5Zm-3.83-1.139a.214.214,0,0,1-.429,0V5.083a.214.214,0,0,1,.429,0V7.362Zm-5,2.929a6.771,6.771,0,1,1-1.983,4.787A6.752,6.752,0,0,1,10.289,10.291Z" transform="translate(0 0)" fill-rule="evenodd"/>
  </g>
</svg>
