<svg xmlns="http://www.w3.org/2000/svg" width="19.863" height="19.863" viewBox="0 0 19.863 19.863">
  <g id="noun_price_1002145" transform="translate(144.808 22.807)">
    <g id="Group_90" data-name="Group 90" transform="translate(-144.808 -22.807)">
      <g id="Group_89" data-name="Group 89">
        <path id="Path_33" data-name="Path 33" d="M9.931,0A9.931,9.931,0,0,0,2.909,16.955a.421.421,0,1,0,.6-.6,9.09,9.09,0,1,1,6.427,2.662.421.421,0,0,0,0,.842A9.931,9.931,0,1,0,9.931,0Z" transform="translate(0 -0.001)"/>
        <path id="Path_34" data-name="Path 34" d="M38.6,31.118a.421.421,0,0,0,.842,0V29.939a2.723,2.723,0,0,0,2.3-2.685,2.7,2.7,0,0,0-2.677-2.718c-.971-.1-1.424-.542-1.424-1.382a1.38,1.38,0,1,1,2.759,0,.421.421,0,1,0,.842,0,2.224,2.224,0,0,0-1.8-2.18V19.791a.421.421,0,0,0-.842,0v1.183a2.224,2.224,0,0,0-1.8,2.18,2.112,2.112,0,0,0,.549,1.513,2.541,2.541,0,0,0,1.628.706c1.222.129,1.924.815,1.924,1.881a1.879,1.879,0,0,1-3.758,0,.421.421,0,0,0-.842,0,2.723,2.723,0,0,0,2.3,2.685Z" transform="translate(-29.09 -15.523)"/>
      </g>
    </g>
  </g>
</svg>
