<svg xmlns="http://www.w3.org/2000/svg" width="26.835" height="15.493" viewBox="0 0 26.835 15.493">
  <g id="noun_surface_150929" transform="translate(-1.271 -21.866)">
    <path id="Path_35" data-name="Path 35" d="M1.271,29.613l13.418,7.747,13.418-7.747L14.689,21.866Zm17.937-4.184a8.688,8.688,0,0,1-1.849.854c-.052.015-.1.027-.148.039-.266-.129-.533-.256-.8-.38-.338-.159-.676-.319-1.011-.485-.165-.082-.327-.167-.492-.252.673-.359,1.335-.736,1.984-1.11Zm2.519,1.455a8.243,8.243,0,0,1-1.987.888c-.353-.235-.712-.465-1.077-.681-.383-.227-.779-.435-1.176-.632a9.623,9.623,0,0,0,1.927-.909Zm2.518,1.454c-.653.376-1.319.754-2,1.111-.183-.115-.367-.23-.547-.348-.359-.235-.714-.479-1.068-.722-.222-.153-.448-.306-.676-.46A9.427,9.427,0,0,0,21.934,27Zm2.209,1.275-2,1.156c-.643-.373-1.324-.77-2-1.192.679-.361,1.346-.742,2-1.12ZM4.925,28.457c.655.378,1.322.759,2,1.12-.678.421-1.359.82-2,1.192l-2-1.156ZM7.443,27a9.438,9.438,0,0,0,1.973.916c-.227.153-.452.306-.674.458-.355.243-.71.487-1.069.723-.18.118-.363.233-.546.348-.676-.357-1.342-.735-2-1.111Zm5.038-2.908c.649.374,1.311.752,1.984,1.11-.164.085-.327.171-.492.252-.335.166-.674.325-1.012.485-.262.124-.528.251-.794.379-.049-.013-.1-.024-.148-.039a8.645,8.645,0,0,1-1.85-.855Zm6.079,3.173c.3.18.6.371.9.566a3.381,3.381,0,0,1-.743.058c-.3-.01-.559-.032-.811-.054-.226-.02-.437-.037-.642-.042-.11-.125-.223-.249-.339-.369a4.043,4.043,0,0,0-1-.8c.138.012.276.021.418.021a3.539,3.539,0,0,0,.846-.106C17.652,26.768,18.114,27,18.559,27.268Zm-6.369-.727a3.535,3.535,0,0,0,.845.106c.146,0,.287-.01.429-.022a3.976,3.976,0,0,0-1,.792c-.12.123-.235.25-.348.379-.2,0-.416.022-.641.042-.253.022-.514.045-.812.054a3.449,3.449,0,0,1-.741-.058c.3-.194.6-.385.9-.565C11.263,27,11.726,26.768,12.19,26.541Zm2.505,0a2.733,2.733,0,0,1,2.08,1.031c.072.075.142.152.212.229a2.738,2.738,0,0,0-1.882.947c-.144.142-.281.289-.416.439-.135-.15-.272-.3-.416-.439A2.736,2.736,0,0,0,12.39,27.8c.073-.08.145-.161.221-.238A2.722,2.722,0,0,1,14.7,26.538ZM10.667,28.1c.3-.01.58-.034.824-.055.155-.013.3-.026.44-.034-.233.275-.457.555-.676.831-.13.164-.259.327-.391.489A12.678,12.678,0,0,1,9.63,30.672c-.257-.125-.514-.247-.769-.367-.338-.159-.677-.319-1.012-.485-.171-.085-.34-.174-.51-.262.149-.095.3-.188.447-.285.361-.237.717-.481,1.073-.725.27-.185.544-.372.822-.558A3.8,3.8,0,0,0,10.667,28.1Zm.357,1.362c.132-.163.262-.327.392-.491.256-.322.518-.651.794-.969a2.466,2.466,0,0,1,1.916.894c.146.144.287.3.424.449-.28.322-.545.654-.8.981-.353.447-.718.909-1.115,1.329-.154.162-.314.314-.477.461-.343-.228-.692-.452-1.046-.661-.417-.247-.849-.471-1.282-.683A13.161,13.161,0,0,0,11.024,29.459Zm1.758,2.334c.4-.427.772-.893,1.128-1.343.251-.317.508-.639.778-.952.27.313.528.635.779.952.356.45.723.916,1.128,1.343.146.154.3.3.45.438-.251.168-.5.338-.743.5-.356.244-.712.488-1.073.726-.178.117-.359.23-.54.344-.181-.114-.362-.227-.54-.344-.361-.237-.717-.481-1.073-.726-.244-.167-.492-.336-.743-.5C12.486,32.092,12.637,31.947,12.783,31.793Zm3.962-.142c-.4-.42-.763-.882-1.115-1.329-.258-.327-.523-.659-.8-.981.137-.153.277-.3.424-.448A2.468,2.468,0,0,1,17.166,28c.275.317.538.645.793.967q.2.25.4.5a12.854,12.854,0,0,0,1.192,1.3c-.433.213-.865.437-1.282.684-.355.21-.7.433-1.046.661C17.059,31.966,16.9,31.814,16.745,31.652Zm1.773-2.317c-.134-.165-.266-.331-.4-.5-.218-.275-.442-.555-.674-.829.139.008.285.02.441.034.244.021.52.045.823.055a3.8,3.8,0,0,0,.985-.109c.278.186.553.373.824.559.356.244.711.488,1.072.725.147.1.3.19.447.285-.169.088-.339.177-.51.262-.336.166-.675.326-1.014.487q-.379.179-.763.364A12.542,12.542,0,0,1,18.518,29.335Zm-2.859-2.942c-.245-.025-.522-.054-.851-.061h0a.1.1,0,0,0-.024,0c-.029,0-.055-.005-.085-.006h0c-.031,0-.058,0-.088.006a.1.1,0,0,0-.039,0c-.328.007-.606.036-.851.061a4.139,4.139,0,0,1-1.228,0l.558-.265c.339-.16.679-.32,1.015-.487.209-.1.417-.212.624-.321.207.109.415.217.624.321.337.166.676.327,1.015.486.185.087.373.175.56.265A4.145,4.145,0,0,1,15.659,26.393Zm-5.7-.844a9.632,9.632,0,0,0,1.928.909c-.4.2-.793.406-1.176.632-.365.216-.723.446-1.075.681a8.219,8.219,0,0,1-1.988-.887ZM7.138,29.686c.206.108.412.215.62.318.337.166.676.327,1.016.487.229.108.46.218.691.329a12.46,12.46,0,0,1-2.024,1.4L5.131,30.888C5.778,30.513,6.461,30.111,7.138,29.686Zm2.526,1.232c.453.222.905.454,1.34.712.335.2.666.409.992.625a14,14,0,0,1-2.036,1.421L7.646,32.34A12.154,12.154,0,0,0,9.664,30.918Zm2.509,1.455c.265.178.528.357.786.534.357.245.715.49,1.077.728.152.1.307.2.461.294-.684.426-1.37.827-2.017,1.2l-2.315-1.337A13.728,13.728,0,0,0,12.173,32.373Zm2.516,1.678c.677.424,1.358.825,2,1.2l-2,1.156-2-1.156C13.331,34.875,14.011,34.475,14.689,34.051Zm.192-.122c.154-.1.309-.194.461-.294.362-.237.719-.483,1.077-.728.258-.177.521-.356.786-.534a13.671,13.671,0,0,0,2.009,1.42L16.9,35.13C16.251,34.756,15.565,34.355,14.88,33.929Zm2.5-1.674c.326-.216.657-.427.992-.625.435-.257.887-.49,1.34-.711A12.174,12.174,0,0,0,21.73,32.34l-2.313,1.335A14.01,14.01,0,0,1,17.381,32.254Zm2.534-1.435c.23-.11.459-.22.686-.327.34-.16.68-.321,1.018-.488.208-.1.414-.21.62-.318.678.425,1.36.826,2.008,1.2l-2.311,1.334A12.634,12.634,0,0,1,19.915,30.819ZM14.689,25.09c-.678-.358-1.346-.737-2-1.115l2-1.156,2,1.156C16.035,24.353,15.367,24.732,14.689,25.09Z" transform="translate(0 0)"/>
  </g>
</svg>
