<svg xmlns="http://www.w3.org/2000/svg" width="21" height="19.222" viewBox="0 0 21 19.222">
  <g id="noun_filter_1181287" transform="translate(-27 -29)">
    <g id="Group_110" data-name="Group 110" transform="translate(27.5 29.5)">
      <g id="Group_109" data-name="Group 109" transform="translate(0 0)">
        <path id="Path_82" data-name="Path 82" d="M47.722,31.29h0a2,2,0,0,1,0,3.976V47.5a.222.222,0,1,1-.444,0V35.266a2,2,0,0,1,0-3.976V29.722a.222.222,0,1,1,.444,0Zm-1.778,1.988A1.556,1.556,0,1,0,47.5,31.722,1.557,1.557,0,0,0,45.944,33.278Z" transform="translate(-37.5 -29.5)" stroke="#000" stroke-width="1"/>
        <path id="Path_83" data-name="Path 83" d="M29.722,41.957h0a2,2,0,0,1,0,3.976V47.5a.222.222,0,1,1-.444,0V45.932a2,2,0,0,1,0-3.976V29.722a.222.222,0,0,1,.444,0Zm-1.778,1.988A1.556,1.556,0,1,0,29.5,42.389,1.557,1.557,0,0,0,27.944,43.944Z" transform="translate(-27.5 -29.5)" stroke="#000" stroke-width="1"/>
        <path id="Path_84" data-name="Path 84" d="M65.722,37.957h0a2,2,0,0,1,0,3.976V47.5a.222.222,0,1,1-.444,0V41.932a2,2,0,0,1,0-3.976V29.722a.222.222,0,1,1,.444,0Zm-1.778,1.988A1.556,1.556,0,1,0,65.5,38.389,1.557,1.557,0,0,0,63.944,39.944Z" transform="translate(-47.5 -29.5)" stroke="#000" stroke-width="1"/>
      </g>
    </g>
  </g>
</svg>
