<svg xmlns="http://www.w3.org/2000/svg" width="88.913" height="93.928" viewBox="0 0 88.913 93.928">
  <g id="noun_Space_2021192" transform="translate(-7.575 -6.713)">
    <g id="Group_104" data-name="Group 104" transform="translate(7.575 6.713)">
      <g id="Group_103" data-name="Group 103" transform="translate(0 0)">
        <path id="Path_50" data-name="Path 50" d="M70.856,165.752c.2.049-.545,2.75-.539,7.083h0a11.109,11.109,0,0,0,.735,4.44,4.159,4.159,0,0,0,2,2.123,6.409,6.409,0,0,0,3.415.367,20.171,20.171,0,0,0,5-1.383q.465-.183.931-.38a60.736,60.736,0,0,0,5.459-2.688h0c9.777-5.35,16.458-10.436,16.675-10.142.069.094-6.057,5.857-15.939,11.462h0a53.981,53.981,0,0,1-5.588,2.8q-.484.2-.969.395a20.6,20.6,0,0,1-5.4,1.434,7.686,7.686,0,0,1-4.194-.579,5.483,5.483,0,0,1-2.593-2.9,11.567,11.567,0,0,1-.6-4.981h0a18.177,18.177,0,0,1,1.615-7.049Z" transform="translate(-62.581 -96.988)"/>
        <path id="Path_51" data-name="Path 51" d="M84.857,190.424c.287-.342-6.5-3.342-11.894-13.877h0A35.836,35.836,0,0,1,69.038,161.3a36.96,36.96,0,0,1,2.649-14.65,39.459,39.459,0,0,1,7.9-12.385q.261-.277.528-.551A37.514,37.514,0,0,1,91.4,125.755a33.679,33.679,0,0,1,14.411-3.025,35.286,35.286,0,0,1,15.561,4.073h0c11.246,5.863,14.614,13.163,15,12.831a48.4,48.4,0,0,0-15.505-11.827h0a34.866,34.866,0,0,0-15.069-3.68,32.712,32.712,0,0,0-13.764,3.012,36.49,36.49,0,0,0-10.811,7.668q-.257.262-.507.529a38.516,38.516,0,0,0-7.627,11.882,36.139,36.139,0,0,0-2.677,14.057,35.535,35.535,0,0,0,3.527,14.788h0A42.955,42.955,0,0,0,84.857,190.424Z" transform="translate(-62.651 -113.969)"/>
        <path id="Path_52" data-name="Path 52" d="M88.105,188.1c.06-.275,7.784,2.013,18.734-.379a35.653,35.653,0,0,0,15.605-7.564q.974-.835,1.888-1.767a33.594,33.594,0,0,0,7.919-13.338,48.535,48.535,0,0,0,1.936-16.534c-.165-4.133-.527-6.538-.371-6.565.107-.019.815,2.317,1.23,6.505a44.936,44.936,0,0,1-1.435,17.011,33.841,33.841,0,0,1-8.17,14.009q-.96.979-1.988,1.858a35.636,35.636,0,0,1-16.348,7.688,37.135,37.135,0,0,1-19-.924Z" transform="translate(-55.015 -106.275)"/>
        <path id="Path_53" data-name="Path 53" d="M65.733,126.668c-.31-.3.868-2.033,2.63-3.876s3.444-3.1,3.755-2.8-.868,2.033-2.63,3.876S66.043,126.965,65.733,126.668Z" transform="translate(-63.988 -115.08)"/>
        <path id="Path_54" data-name="Path 54" d="M66.566,119.37c.328-.278,1.861.992,3.423,2.834s2.564,3.563,2.236,3.841-1.861-.992-3.423-2.834S66.238,119.647,66.566,119.37Z" transform="translate(-63.66 -115.328)"/>
        <path id="Path_55" data-name="Path 55" d="M118.637,181.6c-.31-.3.868-2.033,2.63-3.876s3.444-3.1,3.755-2.8-.868,2.033-2.63,3.876S118.947,181.893,118.637,181.6Z" transform="translate(-42.817 -93.099)"/>
        <path id="Path_56" data-name="Path 56" d="M119.47,174.3c.328-.278,1.861.992,3.423,2.834s2.564,3.563,2.236,3.841-1.861-.992-3.423-2.834S119.142,174.575,119.47,174.3Z" transform="translate(-42.488 -93.346)"/>
        <path id="Path_57" data-name="Path 57" d="M64.621,135.977c-.314-.293-.114-1.019.447-1.619s1.271-.85,1.585-.557.114,1.019-.447,1.619S64.935,136.27,64.621,135.977Z" transform="translate(-64.473 -109.587)"/>
        <path id="Path_58" data-name="Path 58" d="M94.67,118.918c-.3-.3-.03-1.07.611-1.711s1.407-.914,1.711-.611.03,1.07-.611,1.711S94.974,119.221,94.67,118.918Z" transform="translate(-52.438 -116.472)"/>
        <path id="Path_59" data-name="Path 59" d="M126.066,139.028c-.285-.321.068-1.1.789-1.742s1.538-.9,1.823-.579-.068,1.1-.789,1.743-1.538.9-1.823.579Z" transform="translate(-39.864 -108.43)"/>
        <path id="Path_60" data-name="Path 60" d="M84.914,184.165c-.3-.3-.03-1.07.611-1.711s1.407-.914,1.711-.611.03,1.07-.611,1.711S85.218,184.469,84.914,184.165Z" transform="translate(-56.342 -90.361)"/>
        <path id="Path_61" data-name="Path 61" d="M111.9,159.045c-.173-.123,1.125-2.169,3.25-5.55a133.171,133.171,0,0,0,7.763-13.71h0c.54-1.142,1.069-2.33,1.534-3.546a29.509,29.509,0,0,0,.956-2.918,12.834,12.834,0,0,0,.532-4.57,4.96,4.96,0,0,0-1.138-2.828,5.688,5.688,0,0,0-2.748-1.57,15.641,15.641,0,0,0-4.523-.433h0c-3.829.095-6.164.63-6.206.442-.017-.075,2.176-1.07,6.145-1.449h0a15.359,15.359,0,0,1,4.9.212,6.866,6.866,0,0,1,3.462,1.852,6.32,6.32,0,0,1,1.585,3.612,13.83,13.83,0,0,1-.51,5.128,29.865,29.865,0,0,1-1,3.078c-.485,1.271-1.036,2.494-1.6,3.655h0A91.884,91.884,0,0,1,116,154.067c-2.362,3.244-3.951,5.081-4.095,4.978Z" transform="translate(-45.725 -113.935)"/>
        <path id="Path_62" data-name="Path 62" d="M99.846,168.892c.12-.079.682.534,1.553,1.656a8.019,8.019,0,0,0,1.221,1.13,1.83,1.83,0,0,0,1.04.428,2.382,2.382,0,0,0,1.42-.645c.3-.349.666-.752.495-.908-.322-1.16-.841-2.42-1.134-3.9a6.146,6.146,0,0,1-.1-2.038,3.765,3.765,0,0,1,.45-1.332,3.689,3.689,0,0,1,.417-.594c1.335-1.522,2.823-2.936,4.078-4.121,1.5-1.416,2.371-2.148,3.461-3.327a5.437,5.437,0,0,0,.959-2.652c.157-1.261.311-2,.446-2.008h.007c.135.013.234.75.3,2.059a5.477,5.477,0,0,1-.84,3.336,41.374,41.374,0,0,1-3.323,3.618c-1.188,1.216-2.663,2.683-3.914,4.12a1.843,1.843,0,0,0-.235.332,2.39,2.39,0,0,0-.267.794,4.845,4.845,0,0,0,.066,1.535c.221,1.289.7,2.555,1,3.838a2.31,2.31,0,0,1-1.036,2.273,3.429,3.429,0,0,1-2.282.791,2.772,2.772,0,0,1-1.65-.8A7.482,7.482,0,0,1,100.758,171c-.695-1.272-1.032-2.033-.912-2.112Z" transform="translate(-50.326 -102.824)"/>
        <path id="Path_63" data-name="Path 63" d="M98.265,164.935c-.079.12-.839-.217-2.112-.912a7.483,7.483,0,0,1-1.467-1.217,2.772,2.772,0,0,1-.8-1.65,3.428,3.428,0,0,1,.791-2.282,2.31,2.31,0,0,1,2.273-1.036c1.282.295,2.549.774,3.838,1a4.846,4.846,0,0,0,1.535.066,2.389,2.389,0,0,0,.794-.267,1.844,1.844,0,0,0,.332-.235c1.437-1.25,2.9-2.726,4.12-3.914h0a41.374,41.374,0,0,1,3.618-3.323h0a5.44,5.44,0,0,1,3.325-.839h0a9.21,9.21,0,0,1,1.456.085h0a2.73,2.73,0,0,1,.447.1h0a.542.542,0,0,1,.123.056h0a.209.209,0,0,0,.032.051h0c.007.008.011.009.012.009h0a.023.023,0,0,0-.013.008h0a.209.209,0,0,0-.034.049h0a.588.588,0,0,1-.123.051h0a3.935,3.935,0,0,1-.438.1h0c-.476.088-.914.152-1.389.241h0a5.5,5.5,0,0,0-2.664.96h0c-1.179,1.09-1.912,1.965-3.327,3.461h0c-1.185,1.256-2.6,2.743-4.121,4.078a3.687,3.687,0,0,1-.594.417,3.765,3.765,0,0,1-1.332.45,6.146,6.146,0,0,1-2.038-.1c-1.483-.293-2.744-.812-3.9-1.134-.157-.171-.559.19-.908.495a2.382,2.382,0,0,0-.645,1.42,1.83,1.83,0,0,0,.428,1.04,8.019,8.019,0,0,0,1.13,1.221c1.122.871,1.734,1.433,1.656,1.553Z" transform="translate(-52.703 -102.926)"/>
        <path id="Path_64" data-name="Path 64" d="M95.56,163.016c-.254-.4,1.808-1.977,4.666-3.674.785-.466,1.545-.893,2.2-1.247,1.7,1.389,2.592,2.409,2.37,2.663s-1.3-.446-2.453-1.544c-.584.437-1.245.919-1.928,1.391C98.016,162.264,95.817,163.417,95.56,163.016Z" transform="translate(-52.04 -99.815)"/>
        <path id="Path_65" data-name="Path 65" d="M104.748,160.114c.42.3-1.4,3-4.006,6.284q-.258.324-.509.637h0c-2.982-2.466-5-4.464-4.669-4.817s2.351,1.43,4.566,3.8h0c.129-.208.261-.419.394-.631C102.464,162.3,104.32,159.81,104.748,160.114Z" transform="translate(-52.044 -99.017)"/>
      </g>
    </g>
  </g>
</svg>
