<svg xmlns="http://www.w3.org/2000/svg" width="68" height="60.929" viewBox="0 0 68 60.929">
  <g id="Group_116" data-name="Group 116" transform="translate(-154 -115)">
    <g id="Group_115" data-name="Group 115">
      <g id="Group_114" data-name="Group 114">
        <g id="Group_113" data-name="Group 113">
          <text id="suitswap" transform="translate(154 171.929)" fill="rgba(0,0,0,0.87)" font-size="17" font-family="Neon80s, 'Neon \38 0s'"><tspan x="0" y="0">suitswap</tspan></text>
          <path id="Path_33" data-name="Path 33" d="M41.722,98.031a.549.549,0,1,0-.347,1.042l1.648.549a.549.549,0,0,0,.347-1.042Z" transform="translate(140.613 43.913)"/>
          <path id="Path_34" data-name="Path 34" d="M77.549,99.648a.5.5,0,0,0,.174-.025l1.648-.549a.549.549,0,1,0-.347-1.042l-1.648.549a.55.55,0,0,0-.347.695A.573.573,0,0,0,77.549,99.648Z" transform="translate(114.5 43.913)"/>
          <circle id="Ellipse_8" data-name="Ellipse 8" cx="0.5" cy="0.5" r="0.5" transform="translate(183.929 137.577)"/>
          <circle id="Ellipse_9" data-name="Ellipse 9" cx="0.5" cy="0.5" r="0.5" transform="translate(190.929 137.577)"/>
          <path id="Path_35" data-name="Path 35" d="M37.856,25.3a92.352,92.352,0,0,0-1.59-15.159c0-.01,0-.02-.007-.03-1.178-4.666-3.6-6.076-3.719-6.145a15.574,15.574,0,0,0-1.822-.737,7.946,7.946,0,0,1-2.905-1.5c-.086-.083-.169-.168-.251-.251A3.672,3.672,0,0,0,25.993.389.557.557,0,0,0,25.9.37L23.11,0c-.024,0-2.339,0-2.363,0L17.954.37a.557.557,0,0,0-.089.019A3.672,3.672,0,0,0,16.3,1.48,7.87,7.87,0,0,1,13.14,3.226a15.479,15.479,0,0,0-1.843.748c-.1.058-2.52,1.468-3.7,6.134,0,.01,0,.02-.007.03A92.335,92.335,0,0,0,6,25.291l0,5.86a1.1,1.1,0,0,0,1.1,1.1H9.191a1.1,1.1,0,0,0,1.1-1.039l.517-9.206,2.358-8.248c.743,1.343,1.765,4.568.211,11.038L11.342,31.9a1.1,1.1,0,0,0,.357,1.15,8.834,8.834,0,0,0,5.182,2.1,5.28,5.28,0,0,0,2.2-.47.548.548,0,0,0,.151-.1c.074-.07,1.81-1.773,2.14-7.12,0-.011,0-.023,0-.034v-9.42a.542.542,0,0,0-.011-.109L19.342,7.952c-.053,0-.106.011-.159.011a2.194,2.194,0,0,1-1.011-.25l1.551,7.65L14.445,7.29l2.541-1.726V4.236L13.828,6.381a1.1,1.1,0,0,0-.3,1.51s6.733,10.289,6.744,10.3v9.216c-.269,4.313-1.483,6-1.747,6.316-2.62,1.1-5.346-.881-6.125-1.522l2.04-7.129c2.389-9.94-1-12.843-1.149-12.961a.549.549,0,0,0-.875.275l-2.68,9.374a.544.544,0,0,0-.02.12l-.345,6.131H7.1V25.286A90.859,90.859,0,0,1,8.668,10.362c1.02-4.026,3.021-5.339,3.164-5.428a14.679,14.679,0,0,1,1.677-.673,8.751,8.751,0,0,0,3.3-1.741c.092-.089.181-.18.27-.269a2.835,2.835,0,0,1,1.067-.8l2.71-.356H23l2.71.356a2.835,2.835,0,0,1,1.067.8c.088.089.177.18.27.269a8.753,8.753,0,0,0,3.3,1.741,14.679,14.679,0,0,1,1.677.673c.143.089,2.144,1.4,3.164,5.428a90.836,90.836,0,0,1,1.567,14.93v2.722H34.489l-.344-6.131a.544.544,0,0,0-.02-.12l-2.68-9.374a.549.549,0,0,0-.875-.275c-.146.119-3.538,3.021-1.143,12.984L31.462,32.2c-.781.642-3.507,2.627-6.127,1.522-.265-.319-1.478-2-1.747-6.315V18.194c.012-.015,6.744-10.3,6.744-10.3a1.1,1.1,0,0,0-.3-1.51L26.873,4.237V5.565l2.54,1.725-5.277,8.072,1.55-7.649a2.194,2.194,0,0,1-1.011.25c-.053,0-.106-.007-.159-.011L22.5,17.9a.542.542,0,0,0-.011.109v9.42c0,.011,0,.023,0,.034.33,5.347,2.066,7.05,2.14,7.12a.548.548,0,0,0,.151.1c3.228,1.459,6.463-.879,7.378-1.631a1.1,1.1,0,0,0,.357-1.15l-2.027-7.084c-1.56-6.49-.536-9.72.2-11.061l2.358,8.248.517,9.208a1.1,1.1,0,0,0,1.1,1.037h2.091a1.1,1.1,0,0,0,1.1-1.1ZM9.306,29.113l-.115,2.039H7.1V29.113Zm25.36,2.039-.114-2.039h2.206v2.039Z" transform="translate(166 115)"/>
          <path id="Path_36" data-name="Path 36" d="M56.591,13.385a1.1,1.1,0,0,0,1.1-1.1V10.093a1.1,1.1,0,0,0-.571-.966,1.085,1.085,0,0,0-1.095.023L53.845,10.4,51.688,9.163A1.1,1.1,0,0,0,50,10.093v2.191a1.1,1.1,0,0,0,.571.966,1.113,1.113,0,0,0,.534.137,1.042,1.042,0,0,0,.561-.16l2.179-1.248L56,13.213a1.1,1.1,0,0,0,.589.172Zm-5.493-1.1,0-2.195,1.919,1.1Zm5.493-2.191,0,2.195-1.919-1.1Z" transform="translate(134.084 108.479)"/>
        </g>
      </g>
    </g>
  </g>
</svg>
