<svg xmlns="http://www.w3.org/2000/svg" width="48.974" height="48.976" viewBox="0 0 48.974 48.976">
  <path id="Path_88" data-name="Path 88" d="M72.986,66.75H68.249a1.5,1.5,0,0,0-1.5,1.5v4.738a1.5,1.5,0,0,0,1.5,1.5h4.737a1.5,1.5,0,0,0,1.5-1.5V68.25A1.5,1.5,0,0,0,72.986,66.75Zm-20.618,0H47.63a1.5,1.5,0,0,0-1.5,1.5v4.738a1.5,1.5,0,0,0,1.5,1.5h4.738a1.5,1.5,0,0,0,1.5-1.5V68.25A1.5,1.5,0,0,0,52.368,66.75Zm-20.618,0H27.012a1.5,1.5,0,0,0-1.5,1.5v4.738a1.5,1.5,0,0,0,1.5,1.5H31.75a1.5,1.5,0,0,0,1.5-1.5V68.25A1.5,1.5,0,0,0,31.75,66.75ZM72.986,25.512H68.249a1.5,1.5,0,0,0-1.5,1.5V31.75a1.5,1.5,0,0,0,1.5,1.5h4.737a1.5,1.5,0,0,0,1.5-1.5V27.012A1.5,1.5,0,0,0,72.986,25.512Zm-41.236,0H27.012a1.5,1.5,0,0,0-1.5,1.5V31.75a1.5,1.5,0,0,0,1.5,1.5H31.75a1.5,1.5,0,0,0,1.5-1.5V27.012A1.5,1.5,0,0,0,31.75,25.512Zm20.618,0H47.63a1.5,1.5,0,0,0-1.5,1.5V31.75a1.5,1.5,0,0,0,1.5,1.5h4.738a1.5,1.5,0,0,0,1.5-1.5V27.012A1.5,1.5,0,0,0,52.368,25.512ZM31.75,46.131H27.012a1.5,1.5,0,0,0-1.5,1.5V52.37a1.5,1.5,0,0,0,1.5,1.5H31.75a1.5,1.5,0,0,0,1.5-1.5V47.631A1.5,1.5,0,0,0,31.75,46.131Zm20.618,0H47.63a1.5,1.5,0,0,0-1.5,1.5V52.37a1.5,1.5,0,0,0,1.5,1.5h4.738a1.5,1.5,0,0,0,1.5-1.5V47.631A1.5,1.5,0,0,0,52.368,46.131Zm20.618,0H68.249a1.5,1.5,0,0,0-1.5,1.5V52.37a1.5,1.5,0,0,0,1.5,1.5h4.737a1.5,1.5,0,0,0,1.5-1.5V47.631A1.5,1.5,0,0,0,72.986,46.131Z" transform="translate(-25.512 -25.512)"/>
</svg>
