<svg xmlns="http://www.w3.org/2000/svg" width="66.767" height="82.327" viewBox="0 0 66.767 82.327">
  <g id="phone" transform="translate(-60.874 39.515)">
    <g id="Group_115" data-name="Group 115" transform="translate(-2 -78)">
      <path id="Path_89" data-name="Path 89" d="M90.893,51.193A9.088,9.088,0,0,1,88.32,63.413l-5.467,4.181c-4.5,2.894,16.723,33.124,21.225,29.908h0c3.538-2.573,7.4-6.432,12.542-5.467a7.933,7.933,0,0,1,5.789,3.859l5.467,7.075c2.573,4.181,2.573,11.256-1.608,14.15-10.934,7.718-24.763,2.573-36.983-8.361A85.3,85.3,0,0,1,67.1,77.885C61.306,63.413,60.663,49.263,70.311,40.9a9.932,9.932,0,0,1,4.5-2.251c2.894-.643,6.432.643,9,2.894C86.069,43.475,89.285,48.3,90.893,51.193ZM76.1,42.831c-1.608,0-2.894,1.286-4.181,2.251-6.753,7.075-5.789,18.974-.643,31.195a78.959,78.959,0,0,0,20.9,29.265c10.613,9.648,22.833,14.472,31.516,8.04,2.251-1.608,1.93-5.789.643-8.04l-5.467-7.4a5.469,5.469,0,0,0-3.216-1.93c-2.894-.643-6.753,3.216-9,4.824h0c-9.326,6.432-35.7-30.551-26.371-36.983l5.467-4.181a4.317,4.317,0,0,0,1.608-6.11C85.426,49.906,80.924,42.831,76.1,42.831Z" fill="#fff"/>
    </g>
  </g>
</svg>
