<svg xmlns="http://www.w3.org/2000/svg" width="19.709" height="19.709" viewBox="0 0 19.709 19.709">
  <g id="Group_103" data-name="Group 103" transform="translate(-6 -6)">
    <g id="Group_102" data-name="Group 102" transform="translate(6 6)">
      <path id="Path_79" data-name="Path 79" d="M31.162,16.324A5.162,5.162,0,1,0,26,11.162,5.177,5.177,0,0,0,31.162,16.324Zm0-9.385a4.223,4.223,0,1,1-4.223,4.223A4.236,4.236,0,0,1,31.162,6.939Z" transform="translate(-21.307 -6)"/>
      <path id="Path_80" data-name="Path 80" d="M8.206,60.456H23.5a2.2,2.2,0,0,0,2.206-2.206,7.583,7.583,0,0,0-1.736-4.834A5.734,5.734,0,0,0,17.732,51.7a6.112,6.112,0,0,1-3.778,0,5.647,5.647,0,0,0-6.218,1.713A7.583,7.583,0,0,0,6,58.25,2.2,2.2,0,0,0,8.206,60.456ZM8.44,54a4.623,4.623,0,0,1,3.59-1.666,5.553,5.553,0,0,1,1.619.258,6.941,6.941,0,0,0,4.364,0A4.732,4.732,0,0,1,23.222,54a6.575,6.575,0,0,1,1.549,4.247A1.262,1.262,0,0,1,23.5,59.517H8.206A1.262,1.262,0,0,1,6.939,58.25,6.8,6.8,0,0,1,8.44,54Z" transform="translate(-6 -40.746)"/>
    </g>
  </g>
</svg>
