<svg xmlns="http://www.w3.org/2000/svg" width="17.012" height="19.347" viewBox="0 0 17.012 19.347">
  <g id="Group_103" data-name="Group 103" transform="translate(0.105 0.049)">
    <path id="Path_81" data-name="Path 81" d="M46.612,8.457a8.406,8.406,0,1,0-16.812,0,.5.5,0,1,0,1,0,7.409,7.409,0,1,1,7.409,7.479h-.855l1.237-1.4a.506.506,0,0,0-.04-.712.5.5,0,0,0-.7.04l-1.768,2a.865.865,0,0,0,0,1.14l1.761,2a.5.5,0,0,0,.7.04.506.506,0,0,0,.04-.712l-1.237-1.391H38.2a8.452,8.452,0,0,0,8.406-8.476Z" transform="translate(-29.805)" fill="#fff" stroke="#fff" stroke-width="0.2"/>
  </g>
</svg>
