<svg xmlns="http://www.w3.org/2000/svg" width="17.812" height="20.113" viewBox="0 0 17.812 20.113">
  <g id="Group_103" data-name="Group 103" transform="translate(0.505 0.449)">
    <path id="Path_81" data-name="Path 81" d="M46.612,8.457a8.406,8.406,0,1,0-16.812,0,.5.5,0,0,0,1,0,7.409,7.409,0,1,1,7.409,7.479h-.855l1.237-1.4a.506.506,0,0,0-.04-.712.5.5,0,0,0-.7.04l-1.768,1.995a.865.865,0,0,0,0,1.14L37.844,19a.5.5,0,0,0,.7.04.506.506,0,0,0,.04-.712l-1.237-1.391h.855a8.452,8.452,0,0,0,8.406-8.476Z" transform="translate(-29.805 0)" fill="#fff" stroke="#fff" stroke-width="1"/>
  </g>
</svg>
