<svg xmlns="http://www.w3.org/2000/svg" width="11.537" height="11.537" viewBox="0 0 11.537 11.537">
  <path id="Icon_open-magnifying-glass" data-name="Icon open-magnifying-glass" d="M5-.031a5,5,0,0,0,0,10,4.944,4.944,0,0,0,2.372-.586,1.429,1.429,0,0,0,.186.186L8.989,11a1.458,1.458,0,1,0,2.058-2.058L9.618,7.515a1.429,1.429,0,0,0-.229-.186,4.935,4.935,0,0,0,.629-2.372,5.007,5.007,0,0,0-5-5ZM5,1.4A3.556,3.556,0,0,1,8.575,4.971a3.584,3.584,0,0,1-.943,2.458l-.043.043a1.429,1.429,0,0,0-.186.186,3.576,3.576,0,0,1-2.415.9,3.573,3.573,0,0,1,0-7.146Z" transform="translate(0 0.045)" fill="#53795e"/>
</svg>
