<svg xmlns="http://www.w3.org/2000/svg" width="33.763" height="33.763" viewBox="0 0 33.763 33.763">
  <g id="Group_117" data-name="Group 117" transform="translate(-176.5 -658.5)">
    <g id="Icon_feather-image" data-name="Icon feather-image" transform="translate(177 659)">
      <path id="Path_69" data-name="Path 69" d="M8.117,4.5H33.438a3.617,3.617,0,0,1,3.617,3.617V33.438a3.617,3.617,0,0,1-3.617,3.617H8.117A3.617,3.617,0,0,1,4.5,33.438V8.117A3.617,3.617,0,0,1,8.117,4.5Z" transform="translate(-4.5 -4.5)" fill="none" stroke="#000" stroke-linecap="round" stroke-linejoin="round" stroke-width="1"/>
      <path id="Path_70" data-name="Path 70" d="M15.926,13.213A2.713,2.713,0,1,1,13.213,10.5,2.713,2.713,0,0,1,15.926,13.213Z" transform="translate(-3.265 -3.265)" fill="none" stroke="#000" stroke-linecap="round" stroke-linejoin="round" stroke-width="1"/>
      <path id="Path_71" data-name="Path 71" d="M36.438,24.043,27.395,15,7.5,34.895" transform="translate(-3.883 -2.34)" fill="none" stroke="#000" stroke-linecap="round" stroke-linejoin="round" stroke-width="1"/>
    </g>
  </g>
</svg>
